<svg viewBox="0 0 8 8" fill="none" xmlns="http://www.w3.org/2000/svg">
<path fill-rule="evenodd" clip-rule="evenodd" d="M5.51167 0.355343C5.12067 0.337344 4.996 0.333344 4 0.333344C3.004 0.333344 2.87934 0.337677 2.48867 0.355343C2.098 0.37301 1.83134 0.435344 1.59801 0.525677C1.35367 0.61801 1.13201 0.762343 0.948672 0.94901C0.762005 1.13201 0.618005 1.35334 0.526005 1.59801C0.435338 1.83134 0.373338 2.09801 0.355338 2.48801C0.337338 2.87968 0.333338 3.00434 0.333338 4.00001C0.333338 4.99601 0.337672 5.12068 0.355338 5.51168C0.373005 5.90168 0.435338 6.16834 0.526005 6.40168C0.618007 6.64637 0.762245 6.86808 0.948672 7.05134C1.13201 7.23801 1.35367 7.38201 1.59801 7.47401C1.83134 7.56468 2.09801 7.62668 2.48801 7.64468C2.87934 7.66268 3.004 7.66668 4 7.66668C4.996 7.66668 5.12067 7.66234 5.51167 7.64468C5.90167 7.62701 6.16834 7.56468 6.40167 7.47401C6.64636 7.382 6.86806 7.23776 7.05134 7.05134C7.23788 6.86823 7.38223 6.64664 7.47434 6.40201C7.56467 6.16868 7.62667 5.90201 7.64467 5.51201C7.66267 5.12034 7.66667 4.99568 7.66667 4.00001C7.66667 3.00401 7.66234 2.87934 7.64467 2.48868C7.62701 2.09801 7.56467 1.83134 7.47434 1.59801C7.3821 1.35337 7.23763 1.13178 7.05101 0.948677C6.86799 0.762177 6.64651 0.617825 6.402 0.525677C6.16867 0.435344 5.902 0.373343 5.512 0.355343H5.51167ZM2.51834 1.01534C2.90501 0.997677 3.021 0.99401 4 0.99401C4.97901 0.99401 5.09501 0.997677 5.48167 1.01534C5.83934 1.03168 6.03334 1.09134 6.16267 1.14168C6.33367 1.20834 6.456 1.28734 6.58434 1.41568C6.70599 1.53403 6.79961 1.6781 6.85834 1.83734C6.90867 1.96668 6.96834 2.16068 6.98467 2.51834C7.00234 2.90501 7.00601 3.02101 7.00601 4.00001C7.00601 4.97901 7.00234 5.09501 6.98467 5.48168C6.96834 5.83934 6.90867 6.03334 6.85834 6.16268C6.79967 6.32168 6.706 6.46601 6.58434 6.58434C6.466 6.70601 6.32167 6.79968 6.16267 6.85834C6.03334 6.90868 5.83934 6.96834 5.48167 6.98468C5.09501 7.00234 4.97934 7.00601 4 7.00601C3.02067 7.00601 2.90501 7.00234 2.51834 6.98468C2.16067 6.96834 1.96667 6.90868 1.83734 6.85834C1.66634 6.79168 1.544 6.71268 1.41567 6.58434C1.294 6.46601 1.20034 6.32168 1.14167 6.16268C1.09134 6.03334 1.03167 5.83934 1.01534 5.48168C0.997671 5.09501 0.994005 4.97901 0.994005 4.00001C0.994005 3.02101 0.997671 2.90501 1.01534 2.51834C1.03167 2.16068 1.09134 1.96668 1.14167 1.83734C1.20834 1.66634 1.28734 1.54401 1.41567 1.41568C1.53403 1.29403 1.6781 1.20041 1.83734 1.14168C1.96667 1.09134 2.16067 1.03168 2.51834 1.01534V1.01534ZM4.46834 5.13034C4.20679 5.23922 3.91555 5.25391 3.64436 5.17192C3.37318 5.08992 3.13887 4.91632 2.98147 4.68076C2.82406 4.4452 2.75332 4.1623 2.78132 3.88038C2.80933 3.59846 2.93434 3.335 3.135 3.13501C3.26293 3.00717 3.4176 2.90928 3.58789 2.84839C3.75819 2.7875 3.93986 2.76513 4.11984 2.78288C4.29982 2.80063 4.47362 2.85807 4.62874 2.95105C4.78385 3.04404 4.91642 3.17026 5.0169 3.32063C5.11738 3.471 5.18328 3.64177 5.20983 3.82066C5.23639 3.99955 5.22295 4.18211 5.17049 4.35518C5.11803 4.52826 5.02784 4.68755 4.90643 4.82158C4.78502 4.95562 4.6354 5.06107 4.46834 5.13034ZM5.33267 2.66734C5.15766 2.49234 4.9499 2.35351 4.72124 2.2588C4.49258 2.16408 4.2475 2.11533 4 2.11533C3.75251 2.11533 3.50743 2.16408 3.27877 2.2588C3.05011 2.35351 2.84235 2.49234 2.66734 2.66734C2.49233 2.84235 2.35351 3.05012 2.25879 3.27878C2.16408 3.50744 2.11533 3.75251 2.11533 4.00001C2.11533 4.24751 2.16408 4.49258 2.25879 4.72124C2.35351 4.9499 2.49233 5.15767 2.66734 5.33268C3.02078 5.68612 3.50016 5.88469 4 5.88469C4.49985 5.88469 4.97923 5.68612 5.33267 5.33268C5.68612 4.97923 5.88468 4.49986 5.88468 4.00001C5.88468 3.50016 5.68612 3.02079 5.33267 2.66734V2.66734ZM1.69734 2.39601C1.65397 2.3551 1.61925 2.3059 1.59524 2.25133C1.57122 2.19677 1.5584 2.13793 1.55753 2.07832C1.55666 2.01871 1.56776 1.95953 1.59018 1.90428C1.61259 1.84903 1.64586 1.79885 1.68802 1.75669C1.73018 1.71453 1.78036 1.68126 1.83561 1.65885C1.89085 1.63644 1.95004 1.62534 2.00965 1.6262C2.06926 1.62707 2.12809 1.63989 2.18266 1.66391C2.23723 1.68792 2.28643 1.72264 2.32734 1.76601C2.4069 1.85035 2.45046 1.96238 2.44877 2.07832C2.44708 2.19426 2.40027 2.30497 2.31829 2.38696C2.2363 2.46895 2.12558 2.51575 2.00965 2.51744C1.89371 2.51913 1.78168 2.47557 1.69734 2.39601V2.39601Z" fill="#fff"/>
</svg>
