<svg width="8" height="8" viewBox="0 0 8 8" fill="none" xmlns="http://www.w3.org/2000/svg">
<path fill-rule="evenodd" clip-rule="evenodd" d="M3.14301 2.98967H4.38101V3.60634C4.55934 3.25167 5.01667 2.93301 5.70367 2.93301C7.02067 2.93301 7.33334 3.63901 7.33334 4.93434V7.33334H6.00001V5.22934C6.00001 4.49167 5.82167 4.07567 5.36767 4.07567C4.73801 4.07567 4.47634 4.52401 4.47634 5.22901V7.33334H3.14301V2.98967V2.98967ZM0.856672 7.27667H2.19001V2.93301H0.856672V7.27667V7.27667ZM2.38101 1.51667C2.38105 1.62843 2.35889 1.73908 2.3158 1.8422C2.27271 1.94532 2.20956 2.03884 2.13001 2.11734C1.96881 2.27755 1.75061 2.36722 1.52334 2.36667C1.29647 2.36652 1.07878 2.27707 0.917338 2.11767C0.838076 2.03891 0.775134 1.94528 0.73212 1.84215C0.689106 1.73902 0.666865 1.62841 0.666672 1.51667C0.666672 1.29101 0.756672 1.07501 0.917672 0.915672C1.07897 0.756058 1.29675 0.666572 1.52367 0.666672C1.75101 0.666672 1.96901 0.756338 2.13001 0.915672C2.29067 1.07501 2.38101 1.29101 2.38101 1.51667Z" fill="#222222"/>
</svg>
