<svg viewBox="0 0 24 24" fill="none" xmlns="http://www.w3.org/2000/svg">
<path d="M7 18H14M7 14H8M7 10H10M7 2H16.5L21 6.5V19" stroke="#222222" stroke-width="1.5" stroke-linecap="round" stroke-linejoin="round"/>
<path d="M3 20.5V6.5C3 6.10218 3.15804 5.72064 3.43934 5.43934C3.72064 5.15804 4.10218 5 4.5 5H14.252C14.4111 5.00014 14.5636 5.06345 14.676 5.176L17.824 8.324C17.88 8.3799 17.9243 8.44632 17.9545 8.51943C17.9847 8.59254 18.0002 8.6709 18 8.75V20.5C18 20.8978 17.842 21.2794 17.5607 21.5607C17.2794 21.842 16.8978 22 16.5 22H4.5C4.10218 22 3.72064 21.842 3.43934 21.5607C3.15804 21.2794 3 20.8978 3 20.5Z" stroke="#222222" stroke-width="1.5" stroke-linecap="round" stroke-linejoin="round"/>
<path d="M14 8.39986V5.35386C14.0001 5.28394 14.021 5.21562 14.0599 5.15752C14.0988 5.09942 14.154 5.05414 14.2186 5.0274C14.2832 5.00066 14.3543 4.99365 14.4229 5.00726C14.4915 5.02086 14.5545 5.05448 14.604 5.10386L17.896 8.39586C17.9459 8.44517 17.9799 8.50823 17.9938 8.57698C18.0077 8.64573 18.0008 8.71706 17.974 8.78186C17.9471 8.84667 17.9016 8.90202 17.8432 8.94084C17.7848 8.97967 17.7161 9.00021 17.646 8.99986H14.6C14.4409 8.99986 14.2883 8.93664 14.1757 8.82412C14.0632 8.7116 14 8.55899 14 8.39986Z" fill="#222222" stroke="#222222" stroke-width="1.5" stroke-linecap="round" stroke-linejoin="round"/>
</svg>
