<svg width="8" height="8" viewBox="0 0 8 8" fill="none" xmlns="http://www.w3.org/2000/svg">
<path d="M7.10625 6.67578L5.07734 4.64687C5.39219 4.23984 5.5625 3.74219 5.5625 3.21875C5.5625 2.59219 5.31797 2.00469 4.87578 1.56172C4.43359 1.11875 3.84453 0.875 3.21875 0.875C2.59297 0.875 2.00391 1.11953 1.56172 1.56172C1.11875 2.00391 0.875 2.59219 0.875 3.21875C0.875 3.84453 1.11953 4.43359 1.56172 4.87578C2.00391 5.31875 2.59219 5.5625 3.21875 5.5625C3.74219 5.5625 4.23906 5.39219 4.64609 5.07812L6.675 7.10625C6.68095 7.1122 6.68801 7.11692 6.69579 7.12015C6.70356 7.12337 6.7119 7.12503 6.72031 7.12503C6.72873 7.12503 6.73706 7.12337 6.74484 7.12015C6.75261 7.11692 6.75968 7.1122 6.76562 7.10625L7.10625 6.76641C7.1122 6.76046 7.11692 6.75339 7.12015 6.74562C7.12337 6.73784 7.12503 6.72951 7.12503 6.72109C7.12503 6.71268 7.12337 6.70434 7.12015 6.69657C7.11692 6.68879 7.1122 6.68173 7.10625 6.67578V6.67578ZM4.45625 4.45625C4.125 4.78672 3.68594 4.96875 3.21875 4.96875C2.75156 4.96875 2.3125 4.78672 1.98125 4.45625C1.65078 4.125 1.46875 3.68594 1.46875 3.21875C1.46875 2.75156 1.65078 2.31172 1.98125 1.98125C2.3125 1.65078 2.75156 1.46875 3.21875 1.46875C3.68594 1.46875 4.12578 1.65 4.45625 1.98125C4.78672 2.3125 4.96875 2.75156 4.96875 3.21875C4.96875 3.68594 4.78672 4.12578 4.45625 4.45625Z" fill="#222222"/>
</svg>
