<svg viewBox="0 0 24 24" fill="none" xmlns="http://www.w3.org/2000/svg">
<path d="M6.40005 0.799805H2.40005C1.9757 0.799805 1.56874 0.968376 1.26868 1.26843C0.96862 1.56849 0.800049 1.97546 0.800049 2.3998V6.3998M9.60005 0.799805H14.4M17.6 0.799805H21.6C22.0244 0.799805 22.4314 0.968376 22.7314 1.26843C23.0315 1.56849 23.2 1.97546 23.2 2.3998V6.3998M0.800049 9.5998V14.3998M23.2 9.5998V14.3998M0.800049 17.5998V21.5998C0.800049 22.0242 0.96862 22.4311 1.26868 22.7312C1.56874 23.0312 1.9757 23.1998 2.40005 23.1998H6.40005M23.2 17.5998V21.5998C23.2 22.0242 23.0315 22.4311 22.7314 22.7312C22.4314 23.0312 22.0244 23.1998 21.6 23.1998H17.6M12 6.3998V17.5998M6.40005 11.9998H17.6M9.60005 23.1998H14.4" stroke="#222222"/>
</svg>
