<svg viewBox="0 0 8 8" fill="none" xmlns="http://www.w3.org/2000/svg">
<path d="M4 0.160004C1.8792 0.160004 0.160004 1.8792 0.160004 4C0.160004 6.1208 1.8792 7.84 4 7.84C6.1208 7.84 7.84 6.1208 7.84 4C7.84 1.8792 6.1208 0.160004 4 0.160004ZM5.562 3.3056C5.5636 3.3384 5.564 3.3712 5.564 3.4032C5.564 4.4032 4.8036 5.5556 3.4124 5.5556C3.00132 5.55629 2.59879 5.43822 2.2532 5.2156C2.312 5.2228 2.3724 5.2256 2.4336 5.2256C2.788 5.2256 3.114 5.1052 3.3728 4.902C3.21509 4.89891 3.06227 4.84668 2.93565 4.75261C2.80902 4.65854 2.7149 4.52731 2.6664 4.3772C2.77967 4.39874 2.89634 4.39423 3.0076 4.364C2.83642 4.32939 2.68248 4.23663 2.57189 4.10147C2.46129 3.9663 2.40085 3.79705 2.4008 3.6224V3.6132C2.5028 3.6696 2.6196 3.704 2.7436 3.708C2.58312 3.60117 2.46952 3.43707 2.42602 3.24926C2.38253 3.06144 2.41242 2.8641 2.5096 2.6976C2.69959 2.9312 2.93651 3.1223 3.20503 3.25853C3.47355 3.39475 3.76769 3.47307 4.0684 3.4884C4.03017 3.32613 4.04663 3.15577 4.11521 3.00381C4.18379 2.85185 4.30065 2.7268 4.44763 2.64811C4.59461 2.56942 4.76347 2.54149 4.92796 2.56867C5.09245 2.59585 5.24335 2.67661 5.3572 2.7984C5.52647 2.76491 5.68879 2.70283 5.8372 2.6148C5.78079 2.79006 5.66267 2.93887 5.5048 3.0336C5.65474 3.01554 5.80115 2.97523 5.9392 2.914C5.8378 3.06596 5.71006 3.19858 5.562 3.3056V3.3056Z" fill="#fff"/>
</svg>
