<svg viewBox="0 0 24 24" fill="none" xmlns="http://www.w3.org/2000/svg">
<path d="M9.60002 10.8001C10.5548 10.8001 11.4705 10.4208 12.1456 9.74568C12.8207 9.07055 13.2 8.15488 13.2 7.2001C13.2 6.24532 12.8207 5.32964 12.1456 4.65451C11.4705 3.97938 10.5548 3.6001 9.60002 3.6001C8.64525 3.6001 7.72957 3.97938 7.05444 4.65451C6.37931 5.32964 6.00002 6.24532 6.00002 7.2001C6.00002 8.15488 6.37931 9.07055 7.05444 9.74568C7.72957 10.4208 8.64525 10.8001 9.60002 10.8001ZM9.60002 13.2001C11.5096 13.2001 13.3409 13.9587 14.6912 15.3089C16.0415 16.6592 16.8 18.4905 16.8 20.4001H2.40002C2.40002 18.4905 3.15859 16.6592 4.50886 15.3089C5.85912 13.9587 7.69047 13.2001 9.60002 13.2001ZM19.2 8.4001C19.2 8.08184 19.0736 7.77661 18.8486 7.55157C18.6235 7.32653 18.3183 7.2001 18 7.2001C17.6818 7.2001 17.3765 7.32653 17.1515 7.55157C16.9265 7.77661 16.8 8.08184 16.8 8.4001V9.6001H15.6C15.2818 9.6001 14.9765 9.72653 14.7515 9.95157C14.5265 10.1766 14.4 10.4818 14.4 10.8001C14.4 11.1184 14.5265 11.4236 14.7515 11.6486C14.9765 11.8737 15.2818 12.0001 15.6 12.0001H16.8V13.2001C16.8 13.5184 16.9265 13.8236 17.1515 14.0486C17.3765 14.2737 17.6818 14.4001 18 14.4001C18.3183 14.4001 18.6235 14.2737 18.8486 14.0486C19.0736 13.8236 19.2 13.5184 19.2 13.2001V12.0001H20.4C20.7183 12.0001 21.0235 11.8737 21.2486 11.6486C21.4736 11.4236 21.6 11.1184 21.6 10.8001C21.6 10.4818 21.4736 10.1766 21.2486 9.95157C21.0235 9.72653 20.7183 9.6001 20.4 9.6001H19.2V8.4001Z" fill="#222222"/>
</svg>
