<svg viewBox="0 0 8 8" fill="none" xmlns="http://www.w3.org/2000/svg">
<path d="M4.0255 0.999512H4.07C4.481 1.00101 6.5635 1.01601 7.125 1.16701C7.29475 1.2131 7.44943 1.30292 7.57358 1.42752C7.69773 1.55211 7.78701 1.7071 7.8325 1.87701C7.883 2.06701 7.9185 2.31851 7.9425 2.57801L7.9475 2.63001L7.9585 2.76001L7.9625 2.81201C7.995 3.26901 7.999 3.69701 7.9995 3.79051V3.82801C7.999 3.92501 7.9945 4.38201 7.9585 4.85801L7.9545 4.91051L7.95 4.96251C7.925 5.24851 7.888 5.53251 7.8325 5.74151C7.78715 5.91149 7.69792 6.06656 7.57374 6.19117C7.44957 6.31578 7.29482 6.40557 7.125 6.45151C6.545 6.60751 4.3405 6.61851 4.035 6.61901H3.964C3.8095 6.61901 3.1705 6.61601 2.5005 6.59301L2.4155 6.59001L2.372 6.58801L2.2865 6.58451L2.201 6.58101C1.646 6.55651 1.1175 6.51701 0.874 6.45101C0.704245 6.40511 0.549533 6.3154 0.425362 6.19088C0.301192 6.06636 0.211923 5.9114 0.1665 5.74151C0.111 5.53301 0.074 5.24851 0.049 4.96251L0.045 4.91001L0.041 4.85801C0.0163238 4.51921 0.00264993 4.1797 0 3.84001L0 3.77851C0.001 3.67101 0.005 3.29951 0.032 2.88951L0.0355 2.83801L0.037 2.81201L0.041 2.76001L0.052 2.63001L0.057 2.57801C0.081 2.31851 0.1165 2.06651 0.167 1.87701C0.212347 1.70704 0.301581 1.55197 0.425757 1.42735C0.549932 1.30274 0.704685 1.21296 0.8745 1.16701C1.118 1.10201 1.6465 1.06201 2.2015 1.03701L2.2865 1.03351L2.3725 1.03051L2.4155 1.02901L2.501 1.02551C2.97685 1.0102 3.4529 1.0017 3.929 1.00001H4.0255V0.999512ZM3.2 2.60451V5.01351L5.2785 3.80951L3.2 2.60451Z" fill="#fff"/>
</svg>
